<?xml version="1.0" standalone="no"?>
<!DOCTYPE svg PUBLIC "-//W3C//DTD SVG 20010904//EN"
 "http://www.w3.org/TR/2001/REC-SVG-20010904/DTD/svg10.dtd">
<svg version="1.0" xmlns="http://www.w3.org/2000/svg"
 width="512.000000pt" height="512.000000pt" viewBox="0 0 512.000000 512.000000"
 preserveAspectRatio="xMidYMid meet">
<metadata>
Created by potrace 1.11, written by Peter Selinger 2001-2013
</metadata>
<g transform="translate(0.000000,512.000000) scale(0.100000,-0.100000)"
fill="#000000" stroke="none">
<path d="M1565 4852 c-1 -2 10 -33 25 -70 15 -37 119 -290 230 -562 112 -272
238 -580 281 -685 43 -104 135 -329 204 -500 70 -170 133 -323 140 -340 7 -16
35 -83 60 -148 26 -65 51 -115 55 -110 10 11 982 2373 987 2398 4 20 0 20
-369 19 -205 -1 -376 -2 -380 -3 -4 0 -46 -121 -94 -268 -48 -148 -98 -303
-112 -346 -14 -43 -28 -74 -32 -70 -4 4 -23 64 -43 133 -64 225 -146 506 -155
531 l-9 24 -392 0 c-216 0 -394 -1 -396 -3z"/>
<path d="M1571 2809 c6 -12 46 -75 88 -140 42 -65 109 -169 148 -231 40 -62
148 -231 241 -376 l169 -263 -1 -640 c-1 -418 2 -640 9 -642 9 -3 660 -1 678
2 4 0 7 289 7 641 l0 641 325 510 c179 281 325 512 325 515 0 2 -154 4 -343 4
l-344 0 -154 -230 c-85 -126 -158 -228 -164 -226 -8 2 -44 58 -225 350 l-65
105 -353 1 -353 0 12 -21z"/>
</g>
</svg>
